<svg width="540" height="206" viewBox="0 0 540 206" fill="none" xmlns="http://www.w3.org/2000/svg">
<path d="M176.162 3.96795C183.401 4.94253 191.685 5.42982 201.014 5.42982C214.24 5.42982 225.935 4.66408 236.098 3.1326C238.048 2.85414 239.37 2.71491 240.066 2.71491C244.8 2.71491 248.072 4.2464 249.882 7.30937C251.692 10.2331 252.597 14.4099 252.597 19.8397C252.597 26.1049 251.761 30.6297 250.091 33.4143C248.42 36.0596 245.079 37.7303 240.066 38.4264C227.954 40.0971 215.841 40.9325 203.728 40.9325C193.426 40.9325 183.68 40.306 174.491 39.0529C162.657 37.3822 150.126 36.5468 136.9 36.5468C127.85 36.5468 119.636 36.9645 112.257 37.7999C111.561 37.9391 110.517 38.0087 109.124 38.0087C103.973 38.0087 100.492 36.5468 98.6824 33.6231C96.8724 30.6994 95.9675 26.5226 95.9675 21.0927C95.9675 14.9668 96.8028 10.442 98.4735 7.51821C100.144 4.59447 103.068 2.92375 107.245 2.50607C116.851 1.67072 126.458 1.25304 136.065 1.25304C149.709 1.25304 163.074 2.15801 176.162 3.96795ZM176.162 71.2141C180.478 71.771 185.142 72.1887 190.154 72.4672C190.154 65.2274 190.363 59.3103 190.78 54.7158C191.059 50.8175 192.521 48.1026 195.166 46.5711C197.951 45.0396 202.197 44.2739 207.905 44.2739C213.892 44.2739 218.347 45.0396 221.271 46.5711C224.195 47.9634 225.517 50.5391 225.239 54.2982C224.821 58.8926 224.612 64.7401 224.612 71.8406L236.725 70.3788C238.674 70.1003 239.997 69.9611 240.693 69.9611C245.287 69.9611 248.42 71.4926 250.091 74.5555C251.761 77.4793 252.597 81.6561 252.597 87.0859C252.597 93.3511 251.761 97.8759 250.091 100.66C248.42 103.306 245.079 104.976 240.066 105.673C227.954 107.343 215.841 108.179 203.728 108.179C193.426 108.179 183.68 107.552 174.491 106.299C162.657 104.628 150.126 103.793 136.9 103.793C127.85 103.793 119.636 104.211 112.257 105.046C111.561 105.185 110.517 105.255 109.124 105.255C103.973 105.255 100.492 103.793 98.6824 100.869C96.8724 97.9455 95.9675 93.7687 95.9675 88.3389C95.9675 82.0738 96.7332 77.5489 98.2647 74.7644C99.7962 71.8407 102.65 70.1699 106.827 69.7523L123.743 68.7081C123.743 65.9235 123.952 60.1457 124.37 51.3744C124.648 47.4761 126.11 44.7612 128.755 43.2297C131.54 41.6982 135.786 40.9325 141.494 40.9325C147.203 40.9325 151.519 41.6286 154.442 43.0209C157.366 44.2739 158.828 46.5711 158.828 49.9125L158.619 57.2219C158.341 62.2341 158.202 66.2716 158.202 69.3346C164.049 69.7523 170.036 70.3788 176.162 71.2141ZM193.704 192.132C193.704 196.587 192.103 199.511 188.901 200.903C185.699 202.435 180.826 203.2 174.282 203.2C167.599 203.2 162.657 202.504 159.455 201.112C156.392 199.72 154.86 196.726 154.86 192.132V157.465C151.658 157.325 146.994 157.256 140.868 157.256C125.692 157.256 111.143 158.3 97.2205 160.388L92.8349 160.806C83.646 160.806 79.0515 155.307 79.0515 144.308C79.0515 138.6 79.8173 134.284 81.3487 131.36C82.8802 128.297 86.3609 126.278 91.7907 125.303C104.321 123.076 118.313 121.962 133.767 121.962C141.842 121.962 148.177 122.101 152.772 122.38C156.809 122.519 163.979 123.006 174.282 123.842L195.793 125.512L201.849 125.93C214.379 126.487 222.733 126.765 226.91 126.765C235.402 126.765 244.034 126.139 252.806 124.886C254.755 124.607 256.077 124.468 256.774 124.468C261.368 124.468 264.64 126.139 266.589 129.48C268.538 132.682 269.513 137.834 269.513 144.934C269.513 149.111 268.817 152.383 267.424 154.75C266.032 157.117 263.387 158.718 259.488 159.553C249.743 161.502 239.231 162.477 227.954 162.477C219.879 162.477 208.462 161.92 193.704 160.806V192.132Z" fill="#FF7300"/>
<path d="M400.385 32.7877C400.385 31.3955 399.968 30.4905 399.132 30.0728C398.297 29.5159 396.974 29.3071 395.164 29.4463C379.293 30.4209 365.579 30.9082 354.023 30.9082C334.81 30.9082 318.381 30.0032 304.737 28.1933C299.864 27.6364 296.453 26.5922 294.504 25.0607C292.694 23.39 291.789 20.7447 291.789 17.1248L292.207 12.3215C292.763 7.58783 293.877 4.38563 295.548 2.71491C297.358 0.90497 300.421 0 304.737 0L311.002 0.417685C324.785 1.80994 339.265 2.50607 354.441 2.50607C366.832 2.50607 381.242 1.94917 397.67 0.835358C399.619 0.696134 402.334 0.626522 405.815 0.626522C417.789 0.626522 426.351 3.06298 431.502 7.93589C436.793 12.6696 439.16 20.4662 438.603 31.3259C438.324 38.0087 438.185 43.0209 438.185 46.3623L438.394 55.9689C438.533 57.7788 438.603 60.4241 438.603 63.9048C438.603 68.4992 437.141 71.4926 434.217 72.8848C431.293 74.2771 426.003 74.9732 418.345 74.9732C411.802 74.9732 407.277 74.2771 404.771 72.8848C402.404 71.4926 401.012 68.7081 400.594 64.5313C387.646 65.3666 374.489 65.7843 361.123 65.7843C340.1 65.7843 321.305 64.8793 304.737 63.0694C300.699 62.6517 297.845 61.6075 296.175 59.9368C294.643 58.2661 293.877 55.76 293.877 52.4186L294.295 46.5711C294.852 42.812 295.966 40.2363 297.636 38.8441C299.446 37.3126 302.3 36.5468 306.199 36.5468C308.148 36.5468 309.749 36.6165 311.002 36.7557C324.229 38.0087 338.708 38.6352 354.441 38.6352C367.806 38.6352 383.052 38.0783 400.176 36.9645L400.385 33.4143V32.7877ZM366.136 78.7323C381.729 79.4285 393.563 79.7765 401.638 79.7765C416.953 79.7765 430.806 78.8716 443.197 77.0616C445.703 76.7832 447.444 76.6439 448.418 76.6439C452.456 76.6439 455.519 77.9666 457.607 80.6119C459.835 83.2572 460.949 87.782 460.949 94.1864C460.949 98.6417 460.044 101.635 458.234 103.167C456.424 104.698 453.291 105.742 448.836 106.299C434.635 108.109 419.042 109.014 402.056 109.014C389.526 109.014 377.274 108.666 365.3 107.97C345.948 106.995 330.146 106.508 317.894 106.508C308.148 106.508 297.149 106.856 284.897 107.552C279.746 107.831 276.056 106.856 273.829 104.628C271.601 102.262 270.487 98.2936 270.487 92.7246C270.487 87.5732 271.392 83.9533 273.202 81.8649C275.151 79.7765 278.214 78.5931 282.391 78.3147C295.2 77.6185 306.756 77.2705 317.058 77.2705C330.285 77.2705 346.644 77.7578 366.136 78.7323ZM331.886 172.71C331.747 173.267 331.677 174.102 331.677 175.216C331.677 176.608 332.234 177.583 333.348 178.14C334.462 178.836 336.689 179.184 340.031 179.184C343.651 179.323 349.22 179.393 356.738 179.393C370.66 179.393 384.374 179.045 397.879 178.349C411.384 177.652 420.712 176.887 425.864 176.051C429.344 175.355 432.129 175.007 434.217 175.007C436.862 175.007 439.02 175.703 440.691 177.096C442.501 178.488 443.893 180.994 444.868 184.614C445.703 187.955 446.121 190.252 446.121 191.505C446.121 196.657 442.919 199.998 436.514 201.53C431.641 202.783 421.617 203.688 406.442 204.245C391.266 204.941 375.116 205.289 357.991 205.289C337.942 205.289 323.532 204.871 314.761 204.036C306.686 203.2 300.908 200.903 297.428 197.144C293.947 193.524 292.207 188.442 292.207 181.899C292.207 179.532 292.415 176.887 292.833 173.963L293.877 167.28C292.207 166.027 291.371 164.078 291.371 161.433C291.371 160.458 291.65 158.578 292.207 155.794C292.903 152.731 293.877 150.643 295.13 149.529C296.523 148.415 299.238 147.858 303.275 147.858L310.376 148.276C324.437 149.529 340.796 150.155 359.453 150.155C374.211 150.155 386.95 149.668 397.67 148.693L397.879 147.023C397.879 144.934 397.113 143.612 395.582 143.055C394.19 142.498 391.684 142.359 388.064 142.637C381.938 142.916 375.325 143.055 368.224 143.055C356.807 143.055 344.834 142.846 332.304 142.428C319.773 142.011 310.654 141.523 304.946 140.966C300.908 140.549 298.054 139.574 296.383 138.043C294.852 136.511 294.086 134.284 294.086 131.36C294.086 130.385 294.225 128.784 294.504 126.556C295.339 121.684 296.801 118.481 298.889 116.95C301.117 115.418 304.807 114.861 309.958 115.279C324.298 116.254 340.866 116.741 359.662 116.741C375.812 116.741 388.342 116.323 397.253 115.488C401.429 115.07 405.258 114.861 408.739 114.861C418.206 114.861 425.167 116.671 429.623 120.291C434.078 123.772 436.306 129.689 436.306 138.043C436.306 141.523 436.027 144.934 435.47 148.276C436.584 149.668 437.35 151.199 437.767 152.87C438.324 154.541 438.603 156.281 438.603 158.091C438.603 161.015 437.489 163.382 435.261 165.192C433.034 167.002 429.414 168.324 424.402 169.16C405.467 171.666 383.678 172.919 359.035 172.919C349.568 172.919 340.518 172.71 331.886 172.292V172.71Z" fill="#FF7300"/>
</svg>
