<svg width="523" height="523" viewBox="0 0 523 523" fill="none" xmlns="http://www.w3.org/2000/svg">
<rect width="522.098" height="522.098" rx="87.0163" fill="url(#paint0_linear_95_5116)"/>
<path d="M166.725 160.597C173.965 161.572 182.249 162.059 191.577 162.059C204.804 162.059 216.499 161.293 226.662 159.762C228.611 159.483 229.934 159.344 230.63 159.344C235.364 159.344 238.636 160.876 240.446 163.939C242.256 166.862 243.161 171.039 243.161 176.469C243.161 182.734 242.325 187.259 240.654 190.044C238.984 192.689 235.642 194.36 230.63 195.056C218.517 196.726 206.405 197.562 194.292 197.562C183.989 197.562 174.244 196.935 165.055 195.682C153.22 194.011 140.69 193.176 127.464 193.176C118.414 193.176 110.2 193.594 102.821 194.429C102.125 194.568 101.08 194.638 99.6881 194.638C94.5367 194.638 91.056 193.176 89.2461 190.252C87.4362 187.329 86.5312 183.152 86.5312 177.722C86.5312 171.596 87.3666 167.071 89.0373 164.147C90.708 161.224 93.6317 159.553 97.8085 159.135C107.415 158.3 117.022 157.882 126.628 157.882C140.272 157.882 153.638 158.787 166.725 160.597ZM166.725 227.843C171.041 228.4 175.705 228.818 180.718 229.096C180.718 221.857 180.926 215.94 181.344 211.345C181.623 207.447 183.084 204.732 185.73 203.2C188.514 201.669 192.761 200.903 198.469 200.903C204.456 200.903 208.911 201.669 211.835 203.2C214.758 204.593 216.081 207.168 215.803 210.927C215.385 215.522 215.176 221.369 215.176 228.47L227.289 227.008C229.238 226.73 230.561 226.59 231.257 226.59C235.851 226.59 238.984 228.122 240.654 231.185C242.325 234.109 243.161 238.285 243.161 243.715C243.161 249.98 242.325 254.505 240.654 257.29C238.984 259.935 235.642 261.606 230.63 262.302C218.517 263.973 206.405 264.808 194.292 264.808C183.989 264.808 174.244 264.181 165.055 262.928C153.22 261.258 140.69 260.422 127.464 260.422C118.414 260.422 110.2 260.84 102.821 261.675C102.125 261.815 101.08 261.884 99.6881 261.884C94.5367 261.884 91.056 260.422 89.2461 257.499C87.4362 254.575 86.5312 250.398 86.5312 244.968C86.5312 238.703 87.2969 234.178 88.8284 231.394C90.3599 228.47 93.2141 226.799 97.3908 226.382L114.307 225.337C114.307 222.553 114.516 216.775 114.933 208.004C115.212 204.105 116.674 201.39 119.319 199.859C122.103 198.327 126.35 197.562 132.058 197.562C137.766 197.562 142.082 198.258 145.006 199.65C147.93 200.903 149.392 203.2 149.392 206.542L149.183 213.851C148.904 218.863 148.765 222.901 148.765 225.964C154.613 226.382 160.599 227.008 166.725 227.843ZM184.268 348.761C184.268 353.216 182.667 356.14 179.465 357.532C176.262 359.064 171.389 359.83 164.846 359.83C158.163 359.83 153.22 359.134 150.018 357.741C146.955 356.349 145.424 353.356 145.424 348.761V314.094C142.222 313.955 137.558 313.885 131.432 313.885C116.256 313.885 101.707 314.929 87.7842 317.018L83.3986 317.435C74.2097 317.435 69.6152 311.936 69.6152 300.937C69.6152 295.229 70.381 290.913 71.9125 287.989C73.444 284.926 76.9246 282.907 82.3544 281.933C94.8848 279.705 108.877 278.591 124.331 278.591C132.406 278.591 138.741 278.731 143.335 279.009C147.373 279.148 154.543 279.635 164.846 280.471L186.356 282.142L192.413 282.559C204.943 283.116 213.297 283.395 217.473 283.395C225.966 283.395 234.598 282.768 243.369 281.515C245.319 281.237 246.641 281.097 247.337 281.097C251.932 281.097 255.204 282.768 257.153 286.109C259.102 289.312 260.076 294.463 260.076 301.564C260.076 305.74 259.38 309.012 257.988 311.379C256.596 313.746 253.951 315.347 250.052 316.182C240.306 318.132 229.795 319.106 218.518 319.106C210.442 319.106 199.026 318.549 184.268 317.435V348.761Z" fill="#FF7300"/>
<path d="M390.949 189.417C390.949 188.025 390.531 187.12 389.696 186.702C388.861 186.145 387.538 185.936 385.728 186.076C369.856 187.05 356.142 187.537 344.587 187.537C325.373 187.537 308.945 186.632 295.301 184.823C290.428 184.266 287.017 183.221 285.068 181.69C283.258 180.019 282.353 177.374 282.353 173.754L282.77 168.951C283.327 164.217 284.441 161.015 286.112 159.344C287.922 157.534 290.985 156.629 295.301 156.629L301.566 157.047C315.349 158.439 329.829 159.135 345.004 159.135C357.395 159.135 371.805 158.578 388.234 157.465C390.183 157.325 392.898 157.256 396.379 157.256C408.352 157.256 416.915 159.692 422.066 164.565C427.357 169.299 429.723 177.096 429.167 187.955C428.888 194.638 428.749 199.65 428.749 202.992L428.958 212.598C429.097 214.408 429.167 217.053 429.167 220.534C429.167 225.128 427.705 228.122 424.781 229.514C421.857 230.906 416.567 231.603 408.909 231.603C402.365 231.603 397.841 230.906 395.335 229.514C392.968 228.122 391.575 225.337 391.158 221.161C378.21 221.996 365.053 222.414 351.687 222.414C330.664 222.414 311.869 221.509 295.301 219.699C291.263 219.281 288.409 218.237 286.738 216.566C285.207 214.895 284.441 212.389 284.441 209.048L284.859 203.2C285.416 199.441 286.529 196.866 288.2 195.473C290.01 193.942 292.864 193.176 296.763 193.176C298.712 193.176 300.313 193.246 301.566 193.385C314.792 194.638 329.272 195.265 345.004 195.265C358.37 195.265 373.615 194.708 390.74 193.594L390.949 190.044V189.417ZM356.699 235.362C372.293 236.058 384.127 236.406 392.202 236.406C407.517 236.406 421.37 235.501 433.761 233.691C436.267 233.412 438.007 233.273 438.982 233.273C443.02 233.273 446.082 234.596 448.171 237.241C450.398 239.886 451.512 244.411 451.512 250.816C451.512 255.271 450.607 258.264 448.797 259.796C446.987 261.327 443.855 262.371 439.4 262.928C425.199 264.738 409.605 265.643 392.62 265.643C380.089 265.643 367.837 265.295 355.864 264.599C336.512 263.624 320.709 263.137 308.458 263.137C298.712 263.137 287.713 263.485 275.461 264.181C270.31 264.46 266.62 263.485 264.392 261.258C262.165 258.891 261.051 254.923 261.051 249.354C261.051 244.202 261.956 240.583 263.766 238.494C265.715 236.406 268.778 235.222 272.955 234.944C285.764 234.248 297.319 233.9 307.622 233.9C320.849 233.9 337.208 234.387 356.699 235.362ZM322.45 329.339C322.311 329.896 322.241 330.731 322.241 331.845C322.241 333.238 322.798 334.212 323.912 334.769C325.025 335.465 327.253 335.813 330.594 335.813C334.214 335.952 339.783 336.022 347.302 336.022C361.224 336.022 374.938 335.674 388.443 334.978C401.948 334.282 411.276 333.516 416.427 332.681C419.908 331.984 422.693 331.636 424.781 331.636C427.426 331.636 429.584 332.333 431.255 333.725C433.065 335.117 434.457 337.623 435.432 341.243C436.267 344.584 436.685 346.882 436.685 348.135C436.685 353.286 433.483 356.628 427.078 358.159C422.205 359.412 412.181 360.317 397.005 360.874C381.83 361.57 365.679 361.918 348.555 361.918C328.506 361.918 314.096 361.5 305.325 360.665C297.25 359.83 291.472 357.532 287.991 353.773C284.511 350.153 282.77 345.072 282.77 338.528C282.77 336.161 282.979 333.516 283.397 330.592L284.441 323.909C282.77 322.656 281.935 320.707 281.935 318.062C281.935 317.087 282.213 315.208 282.77 312.423C283.466 309.36 284.441 307.272 285.694 306.158C287.086 305.044 289.801 304.487 293.839 304.487L300.939 304.905C315.001 306.158 331.36 306.785 350.016 306.785C364.774 306.785 377.514 306.297 388.234 305.323L388.443 303.652C388.443 301.564 387.677 300.241 386.146 299.684C384.753 299.127 382.247 298.988 378.627 299.266C372.501 299.545 365.888 299.684 358.788 299.684C347.371 299.684 335.398 299.475 322.867 299.058C310.337 298.64 301.218 298.153 295.51 297.596C291.472 297.178 288.618 296.203 286.947 294.672C285.416 293.14 284.65 290.913 284.65 287.989C284.65 287.014 284.789 285.413 285.068 283.186C285.903 278.313 287.365 275.111 289.453 273.579C291.681 272.048 295.37 271.491 300.522 271.908C314.862 272.883 331.43 273.37 350.225 273.37C366.376 273.37 378.906 272.953 387.816 272.117C391.993 271.7 395.822 271.491 399.303 271.491C408.77 271.491 415.731 273.301 420.186 276.921C424.642 280.401 426.869 286.318 426.869 294.672C426.869 298.153 426.591 301.564 426.034 304.905C427.148 306.297 427.913 307.829 428.331 309.499C428.888 311.17 429.167 312.911 429.167 314.72C429.167 317.644 428.053 320.011 425.825 321.821C423.597 323.631 419.978 324.954 414.965 325.789C396.031 328.295 374.242 329.548 349.599 329.548C340.131 329.548 331.082 329.339 322.45 328.922V329.339Z" fill="#FF7300"/>
<defs>
<linearGradient id="paint0_linear_95_5116" x1="261.049" y1="0" x2="261.049" y2="522.098" gradientUnits="userSpaceOnUse">
<stop stop-color="#FFF7EF"/>
<stop offset="1" stop-color="#FFD9BE"/>
</linearGradient>
</defs>
</svg>
